<svg xmlns="http://www.w3.org/2000/svg" xmlns:xlink="http://www.w3.org/1999/xlink" width="1000" zoomAndPan="magnify" viewBox="0 0 750 749.999995" height="1000" preserveAspectRatio="xMidYMid meet" version="1.0"><defs><clipPath id="357a2f0293"><path d="M 73 10 L 679 10 L 679 738 L 73 738 Z M 73 10 " clip-rule="nonzero"/></clipPath><clipPath id="467a23922c"><path d="M 47.957031 722.980469 L 432.40625 -101.546875 L 702.261719 24.277344 L 317.816406 848.804688 Z M 47.957031 722.980469 " clip-rule="nonzero"/></clipPath><clipPath id="4d78a782bc"><path d="M 47.957031 722.980469 L 432.40625 -101.546875 L 702.261719 24.277344 L 317.816406 848.804688 Z M 47.957031 722.980469 " clip-rule="nonzero"/></clipPath></defs><g clip-path="url(#357a2f0293)"><g clip-path="url(#467a23922c)"><g clip-path="url(#4d78a782bc)"><path fill="#77bac9" d="M 658.925781 13.503906 L 658.550781 13.820312 C 639.445312 29.9375 618.703125 44.101562 596.765625 56.378906 C 591.207031 59.328125 585.761719 62.472656 580.105469 65.261719 L 563.046875 73.464844 L 545.621094 81.015625 C 542.734375 82.308594 539.773438 83.464844 536.804688 84.609375 L 527.933594 88.085938 C 504.207031 97.277344 479.894531 105.328125 455.320312 113.230469 C 430.730469 121.179688 405.9375 128.878906 381.121094 138.394531 L 371.71875 142.136719 L 367.015625 144.015625 C 365.445312 144.644531 364.042969 145.335938 362.546875 145.988281 L 353.695312 149.96875 L 351.488281 150.960938 L 350.378906 151.460938 L 348.9375 152.136719 C 347.359375 152.90625 345.789062 153.703125 344.238281 154.527344 C 331.796875 161.152344 320.199219 169.285156 309.875 179.417969 C 299.574219 189.542969 291.140625 201.820312 285.195312 215.113281 C 279.207031 228.429688 276.105469 242.921875 275.386719 257.40625 C 275.246094 259.214844 275.351562 261.027344 275.328125 262.84375 C 275.363281 264.65625 275.277344 266.472656 275.433594 268.277344 C 275.742188 271.886719 275.859375 275.515625 276.484375 279.082031 L 277.285156 284.449219 L 278.449219 289.742188 C 279.105469 293.214844 280.367188 296.9375 281.425781 300.546875 L 281.84375 301.902344 L 282.269531 303.035156 L 283.96875 307.578125 L 284.394531 308.71875 L 284.605469 309.28125 C 284.605469 309.28125 285.003906 310.28125 284.898438 310.003906 L 285.035156 310.3125 C 286.480469 313.597656 287.921875 316.882812 289.632812 320.0625 C 292.980469 326.425781 296.773438 332.625 301.226562 338.328125 C 305.644531 344.054688 310.539062 349.394531 315.800781 354.289062 C 321.066406 359.179688 326.746094 363.527344 332.601562 367.496094 C 335.519531 369.511719 338.542969 371.304688 341.554688 373.125 C 344.613281 374.828125 347.625 376.539062 350.898438 378.140625 C 354.347656 379.917969 356.683594 380.910156 360.152344 382.507812 L 369.214844 386.40625 C 381.191406 391.464844 392.660156 396.222656 402.78125 402.152344 C 405.300781 403.601562 407.835938 405.238281 409.9375 406.6875 C 410.449219 407.011719 411.128906 407.515625 411.777344 408 L 413.730469 409.429688 L 416.777344 411.949219 C 420.992188 415.609375 425.011719 419.527344 428.40625 423.996094 C 442.355469 441.582031 449.148438 464.960938 448.148438 487.992188 C 447.253906 511.023438 438.683594 533.847656 423.480469 550.527344 C 421.628906 552.667969 419.558594 554.566406 417.535156 556.519531 L 414.558594 559.058594 C 414.019531 559.496094 413.671875 559.871094 412.988281 560.363281 L 411.035156 561.796875 C 406.515625 565.242188 401.332031 568.347656 396.183594 571.121094 L 394.222656 572.148438 L 392.238281 573.136719 C 390.898438 573.789062 389.421875 574.425781 388.019531 575.070312 L 379.503906 578.921875 C 376.699219 580.257812 373.769531 581.417969 370.839844 582.578125 L 362.070312 586.089844 C 338.496094 595.207031 313.953125 602.917969 289.324219 610.941406 C 264.683594 618.949219 239.859375 627.175781 215.386719 636.792969 L 206.226562 640.460938 C 203.167969 641.671875 200.117188 642.886719 197.105469 644.261719 L 178.996094 652.273438 L 161.152344 661.015625 C 155.234375 663.988281 149.480469 667.355469 143.644531 670.511719 C 135.140625 675.351562 126.789062 680.480469 118.609375 685.898438 C 119.882812 683.949219 121.15625 682.003906 122.496094 680.097656 C 126.070312 674.996094 129.78125 669.964844 133.742188 665.125 C 135.714844 662.699219 137.671875 660.257812 139.773438 657.925781 C 141.835938 655.566406 143.863281 653.183594 146.054688 650.925781 C 150.296875 646.296875 154.773438 641.882812 159.300781 637.527344 L 166.25 631.128906 L 173.425781 624.976562 C 175.78125 622.882812 178.335938 621.015625 180.78125 619.03125 C 183.242188 617.050781 185.722656 615.101562 188.304688 613.265625 C 190.859375 611.40625 193.378906 609.503906 195.964844 607.683594 L 203.828125 602.359375 C 206.417969 600.539062 209.152344 598.929688 211.832031 597.234375 C 214.539062 595.589844 217.167969 593.816406 219.941406 592.265625 C 225.464844 589.136719 230.90625 585.871094 236.59375 583.007812 C 239.414062 581.546875 242.207031 580.035156 245.050781 578.601562 L 253.671875 574.488281 C 259.359375 571.632812 265.292969 569.253906 271.113281 566.65625 C 276.960938 564.109375 282.972656 561.921875 288.890625 559.535156 C 294.886719 557.3125 300.941406 555.25 306.964844 553.09375 L 325.292969 547.328125 L 325.757812 547.183594 C 330.914062 545.539062 334.082031 540.210938 332.917969 534.808594 C 331.675781 529.070312 326.027344 525.425781 320.289062 526.664062 L 306.378906 529.675781 C 301.761719 530.785156 297.128906 531.820312 292.535156 532.988281 C 287.941406 534.199219 283.324219 535.308594 278.761719 536.609375 C 274.195312 537.925781 269.601562 539.113281 265.070312 540.542969 C 260.535156 541.96875 255.96875 543.25 251.472656 544.800781 C 246.96875 546.320312 242.433594 547.722656 237.976562 549.378906 C 233.511719 551.003906 229.007812 552.527344 224.59375 554.289062 C 220.167969 556.03125 215.703125 557.65625 211.335938 559.539062 C 206.957031 561.390625 202.527344 563.128906 198.210938 565.121094 C 193.882812 567.09375 189.5 568.933594 185.238281 571.050781 C 180.96875 573.148438 176.621094 575.082031 172.421875 577.316406 C 168.210938 579.535156 163.921875 581.597656 159.777344 583.933594 C 155.625 586.265625 151.414062 588.464844 147.320312 590.898438 C 146.257812 591.53125 145.203125 592.144531 144.136719 592.773438 C 147.183594 588.632812 150.390625 584.585938 153.707031 580.636719 C 157.59375 576.070312 161.609375 571.59375 165.824219 567.300781 C 170.011719 562.980469 174.363281 558.8125 178.851562 554.78125 C 183.3125 550.722656 187.972656 546.878906 192.675781 543.082031 L 199.867188 537.550781 L 207.242188 532.25 C 209.671875 530.449219 212.246094 528.839844 214.765625 527.152344 C 217.292969 525.480469 219.808594 523.785156 222.425781 522.246094 L 230.207031 517.515625 L 238.15625 513.0625 C 240.78125 511.535156 243.5 510.171875 246.210938 508.785156 C 248.925781 507.414062 251.601562 505.957031 254.355469 504.660156 C 259.886719 502.121094 265.339844 499.394531 271 497.109375 L 279.421875 493.546875 L 287.976562 490.285156 C 293.648438 488.011719 299.484375 486.183594 305.265625 484.175781 C 311.039062 482.183594 316.957031 480.582031 322.796875 478.761719 C 328.691406 477.101562 334.636719 475.617188 340.554688 474.03125 L 358.492188 469.953125 L 358.820312 469.882812 C 362.207031 469.097656 364.511719 465.835938 364.039062 462.316406 C 363.535156 458.585938 360.097656 455.96875 356.371094 456.472656 L 345.261719 457.976562 L 334.179688 459.691406 C 326.800781 460.90625 319.457031 462.277344 312.132812 463.78125 C 297.492188 466.800781 282.96875 470.398438 268.621094 474.59375 C 265.046875 475.6875 261.445312 476.683594 257.898438 477.855469 C 254.347656 479.023438 250.769531 480.101562 247.242188 481.339844 C 243.71875 482.585938 240.167969 483.742188 236.664062 485.054688 C 233.171875 486.375 229.644531 487.617188 226.175781 488.996094 C 222.710938 490.394531 219.214844 491.730469 215.773438 493.171875 L 205.472656 497.578125 L 202.632812 498.863281 C 203.675781 497.574219 204.726562 496.28125 205.859375 495.054688 L 209.871094 490.53125 C 211.230469 489.046875 212.671875 487.632812 214.074219 486.175781 C 215.496094 484.742188 216.855469 483.242188 218.332031 481.863281 L 222.773438 477.726562 C 225.675781 474.90625 228.804688 472.328125 231.910156 469.722656 L 236.574219 465.820312 L 241.429688 462.152344 C 244.675781 459.714844 247.839844 457.167969 251.265625 454.96875 C 254.644531 452.710938 257.980469 450.386719 261.390625 448.167969 L 271.871094 441.90625 C 275.316406 439.722656 278.988281 437.953125 282.589844 436.046875 C 286.226562 434.207031 289.769531 432.167969 293.488281 430.488281 L 304.652344 425.472656 C 306.523438 424.65625 308.363281 423.753906 310.257812 422.996094 L 315.984375 420.824219 L 327.445312 416.464844 C 331.273438 415.019531 335.230469 413.960938 339.117188 412.683594 L 350.835938 409.011719 L 351.011719 408.957031 C 352.164062 408.59375 352.929688 407.449219 352.769531 406.214844 C 352.589844 404.820312 351.324219 403.84375 349.933594 404.019531 L 343.449219 404.855469 L 337.019531 405.851562 C 334.875 406.191406 332.753906 406.597656 330.621094 406.964844 C 328.488281 407.324219 326.363281 407.742188 324.246094 408.152344 C 315.757812 409.757812 307.316406 411.582031 298.914062 413.496094 C 283.125 417.074219 267.425781 420.949219 251.777344 425.03125 C 258 417.878906 264.832031 411.238281 272.167969 405.183594 C 280.324219 398.441406 289.089844 392.425781 298.265625 387.097656 C 288.925781 392.128906 279.953125 397.886719 271.539062 404.402344 C 263.121094 410.910156 255.269531 418.183594 248.164062 426.152344 C 247.960938 426.390625 247.863281 426.71875 247.933594 427.042969 C 248.058594 427.585938 248.59375 427.917969 249.136719 427.796875 L 249.175781 427.789062 C 265.941406 423.949219 282.773438 420.335938 299.65625 417.066406 C 305.746094 415.886719 311.851562 414.777344 317.953125 413.714844 L 313.851562 415.148438 L 307.964844 417.214844 C 306.015625 417.941406 304.121094 418.796875 302.191406 419.582031 L 290.675781 424.398438 C 286.835938 426.007812 283.167969 427.996094 279.402344 429.773438 C 275.671875 431.628906 271.863281 433.351562 268.277344 435.488281 L 257.367188 441.625 C 253.808594 443.808594 250.316406 446.101562 246.785156 448.339844 C 243.210938 450.507812 239.871094 453.035156 236.46875 455.46875 L 231.375 459.140625 L 226.46875 463.066406 C 223.203125 465.6875 219.910156 468.289062 216.832031 471.148438 L 212.136719 475.34375 C 210.570312 476.738281 209.121094 478.269531 207.609375 479.726562 C 206.117188 481.210938 204.585938 482.652344 203.128906 484.175781 L 198.828125 488.8125 C 197.375 490.332031 196.015625 491.953125 194.648438 493.570312 C 193.285156 495.183594 191.886719 496.773438 190.605469 498.472656 C 189.300781 500.15625 187.972656 501.800781 186.742188 503.578125 C 185.460938 505.335938 184.296875 507.015625 183.027344 509.066406 C 182.210938 510.414062 182.03125 512.152344 182.734375 513.6875 C 183.863281 516.167969 186.773438 517.257812 189.25 516.132812 L 189.492188 516.023438 L 199.480469 511.480469 L 209.570312 507.15625 L 219.742188 503.066406 C 223.144531 501.722656 226.589844 500.492188 230.011719 499.203125 C 230.410156 499.058594 230.8125 498.921875 231.214844 498.777344 C 231.027344 498.878906 230.832031 498.972656 230.640625 499.078125 L 222.253906 503.59375 L 214.015625 508.414062 C 211.25 509.980469 208.574219 511.710938 205.890625 513.421875 C 203.21875 515.148438 200.488281 516.796875 197.890625 518.648438 L 190.03125 524.097656 L 182.34375 529.800781 C 177.308594 533.726562 172.3125 537.710938 167.503906 541.9375 C 162.667969 546.132812 157.960938 550.480469 153.421875 555.015625 C 148.851562 559.511719 144.484375 564.226562 140.222656 569.050781 C 136.015625 573.914062 131.910156 578.894531 128.085938 584.101562 C 124.214844 589.277344 120.589844 594.660156 117.183594 600.222656 C 115.472656 603.003906 113.855469 605.859375 112.285156 608.765625 C 111.511719 610.238281 110.738281 611.691406 110.003906 613.222656 L 108.90625 615.53125 C 108.53125 616.351562 108.222656 617.042969 107.78125 618.121094 C 106.703125 620.824219 106.894531 624.039062 108.613281 626.652344 C 111.40625 630.910156 117.121094 632.089844 121.371094 629.292969 L 121.667969 629.097656 L 133.148438 621.554688 L 144.84375 614.335938 C 148.757812 611.960938 152.773438 609.75 156.730469 607.449219 C 158.632812 606.347656 160.5625 605.300781 162.496094 604.269531 C 161.230469 605.257812 159.976562 606.257812 158.765625 607.316406 L 151.019531 613.863281 L 143.492188 620.6875 C 138.578125 625.347656 133.710938 630.070312 129.082031 635.046875 C 126.707031 637.46875 124.476562 640.035156 122.21875 642.578125 C 119.929688 645.089844 117.773438 647.726562 115.609375 650.355469 C 111.261719 655.59375 107.164062 661.050781 103.207031 666.621094 C 101.222656 669.402344 99.359375 672.273438 97.449219 675.117188 C 95.652344 678.035156 93.757812 680.882812 92.058594 683.875 C 88.535156 689.777344 85.316406 695.875 82.351562 702.164062 C 80.859375 705.300781 79.472656 708.515625 78.148438 711.78125 C 77.496094 713.433594 76.847656 715.070312 76.25 716.789062 L 75.347656 719.398438 L 74.914062 720.757812 L 74.4375 722.367188 C 73.386719 726.046875 74.105469 730.242188 76.753906 733.386719 C 80.988281 738.40625 88.480469 739.039062 93.496094 734.804688 L 93.871094 734.488281 C 112.972656 718.363281 133.714844 704.199219 155.65625 691.921875 C 161.21875 688.976562 166.664062 685.824219 172.316406 683.039062 L 189.378906 674.832031 L 206.804688 667.277344 C 209.691406 665.988281 212.65625 664.835938 215.621094 663.6875 L 224.496094 660.214844 C 248.238281 651.066406 272.539062 642.984375 297.113281 635.089844 C 321.679688 627.148438 346.550781 619.425781 371.261719 609.945312 L 380.507812 606.265625 C 383.597656 605.054688 386.679688 603.835938 389.726562 602.402344 L 398.894531 598.277344 C 400.429688 597.574219 401.921875 596.9375 403.496094 596.183594 L 405.851562 595.007812 L 408.195312 593.792969 C 414.429688 590.445312 420.394531 586.90625 426.203125 582.542969 L 428.164062 581.113281 C 428.796875 580.667969 429.628906 579.933594 430.351562 579.355469 C 431.824219 578.121094 433.363281 576.875 434.769531 575.621094 C 437.425781 573.109375 440.105469 570.613281 442.511719 567.867188 C 447.425781 562.476562 451.871094 556.652344 455.609375 550.4375 C 459.367188 544.238281 462.703125 537.777344 465.261719 531.039062 C 470.535156 517.609375 473.414062 503.371094 474.066406 489.050781 C 474.328125 481.882812 474.066406 474.699219 473.238281 467.5625 C 472.320312 460.429688 470.851562 453.363281 468.820312 446.425781 C 466.734375 439.507812 463.992188 432.765625 460.726562 426.261719 C 457.460938 419.753906 453.417969 413.625 448.949219 407.832031 C 444.503906 402 439.265625 396.789062 433.730469 391.980469 L 429.285156 388.34375 L 427.335938 386.902344 C 426.6875 386.425781 426.070312 385.957031 425.230469 385.390625 C 422.023438 383.160156 419.117188 381.300781 416.039062 379.511719 C 403.824219 372.34375 391.3125 367.210938 379.507812 362.167969 L 370.757812 358.398438 C 368.363281 357.292969 364.75 355.71875 362.476562 354.5 C 359.925781 353.269531 357.316406 351.789062 354.722656 350.367188 C 352.199219 348.839844 349.65625 347.347656 347.246094 345.6875 C 337.492188 339.210938 328.945312 331.394531 321.972656 322.378906 C 318.445312 317.898438 315.464844 313.011719 312.78125 307.957031 C 311.410156 305.445312 310.257812 302.808594 309.082031 300.171875 L 308.972656 299.929688 C 308.953125 299.886719 308.945312 299.863281 308.929688 299.839844 L 308.8125 299.527344 L 307.527344 296.125 L 306.679688 293.855469 L 306.25 292.71875 L 305.972656 291.753906 C 305.269531 289.140625 304.363281 286.75 303.824219 283.859375 L 302.878906 279.679688 L 302.253906 275.449219 C 301.71875 272.640625 301.667969 269.792969 301.394531 266.960938 C 301.253906 265.539062 301.347656 264.117188 301.308594 262.695312 C 301.328125 261.28125 301.210938 259.851562 301.339844 258.441406 C 301.894531 247.121094 304.246094 235.855469 308.871094 225.546875 C 313.484375 215.238281 319.878906 205.785156 328.015625 197.734375 C 336.132812 189.707031 345.886719 182.757812 356.261719 177.21875 C 357.566406 176.53125 358.878906 175.855469 360.203125 175.203125 L 360.625 175 C 360.664062 174.984375 360.691406 174.972656 360.675781 174.976562 L 360.957031 174.851562 L 364.269531 173.347656 L 373.109375 169.347656 C 374.570312 168.703125 376.070312 167.964844 377.503906 167.394531 L 381.8125 165.679688 L 390.425781 162.234375 C 413.898438 153.160156 438.515625 145.417969 463.121094 137.402344 C 487.761719 129.402344 512.578125 121.144531 537.066406 111.570312 L 546.226562 107.902344 C 549.285156 106.691406 552.335938 105.476562 555.347656 104.101562 L 573.460938 96.09375 L 591.304688 87.347656 C 597.222656 84.371094 602.972656 81.007812 608.8125 77.847656 C 617.273438 73.035156 625.578125 67.929688 633.71875 62.546875 C 632.472656 64.449219 631.230469 66.351562 629.917969 68.210938 C 626.347656 73.320312 622.632812 78.34375 618.675781 83.1875 C 616.703125 85.613281 614.742188 88.054688 612.644531 90.386719 C 610.578125 92.742188 608.546875 95.132812 606.363281 97.382812 C 602.125 102.007812 597.648438 106.425781 593.117188 110.785156 L 586.171875 117.179688 L 578.996094 123.324219 C 576.640625 125.421875 574.085938 127.292969 571.636719 129.277344 C 569.179688 131.257812 566.699219 133.207031 564.121094 135.042969 C 561.5625 136.898438 559.046875 138.804688 556.457031 140.625 L 548.601562 145.945312 C 546.007812 147.769531 543.273438 149.378906 540.59375 151.074219 C 537.886719 152.722656 535.257812 154.492188 532.484375 156.039062 C 526.960938 159.171875 521.519531 162.441406 515.832031 165.296875 C 513.011719 166.761719 510.21875 168.277344 507.375 169.703125 L 498.761719 173.816406 C 493.0625 176.65625 487.132812 179.035156 481.308594 181.632812 C 475.46875 184.183594 469.457031 186.371094 463.53125 188.761719 C 457.542969 190.976562 451.484375 193.039062 445.457031 195.195312 L 427.132812 200.964844 L 426.667969 201.109375 C 421.484375 202.757812 418.3125 208.109375 419.480469 213.53125 C 420.722656 219.292969 426.402344 222.949219 432.15625 221.707031 L 446.070312 218.695312 C 450.683594 217.589844 455.320312 216.554688 459.921875 215.386719 C 464.507812 214.171875 469.125 213.058594 473.695312 211.761719 C 478.257812 210.441406 482.851562 209.253906 487.382812 207.828125 C 491.914062 206.40625 496.488281 205.121094 500.984375 203.570312 C 505.480469 202.046875 510.019531 200.640625 514.480469 198.988281 C 518.941406 197.359375 523.445312 195.839844 527.863281 194.074219 C 532.285156 192.339844 536.753906 190.707031 541.121094 188.832031 C 545.5 186.976562 549.925781 185.234375 554.246094 183.242188 C 558.570312 181.269531 562.953125 179.429688 567.21875 177.316406 C 571.492188 175.21875 575.832031 173.28125 580.035156 171.042969 C 584.25 168.828125 588.53125 166.765625 592.679688 164.429688 C 596.832031 162.101562 601.046875 159.894531 605.140625 157.464844 C 606.152344 156.859375 607.164062 156.269531 608.175781 155.671875 C 605.15625 159.761719 601.976562 163.753906 598.699219 167.667969 C 594.808594 172.234375 590.800781 176.710938 586.582031 181 C 582.402344 185.324219 578.046875 189.492188 573.558594 193.519531 C 569.097656 197.574219 564.441406 201.421875 559.738281 205.222656 L 552.550781 210.757812 L 545.175781 216.050781 C 542.742188 217.855469 540.171875 219.460938 537.652344 221.148438 C 535.125 222.820312 532.609375 224.511719 529.992188 226.054688 L 522.21875 230.789062 L 514.265625 235.242188 C 511.640625 236.769531 508.917969 238.128906 506.214844 239.515625 C 503.496094 240.878906 500.824219 242.339844 498.070312 243.636719 C 492.535156 246.179688 487.089844 248.90625 481.429688 251.191406 L 473.003906 254.75 L 464.445312 258.015625 C 458.78125 260.289062 452.941406 262.121094 447.171875 264.128906 C 441.390625 266.117188 435.480469 267.71875 429.636719 269.535156 C 423.746094 271.199219 417.796875 272.683594 411.878906 274.269531 L 393.941406 278.347656 L 393.613281 278.425781 C 390.207031 279.210938 387.894531 282.480469 388.371094 286.015625 C 388.878906 289.769531 392.324219 292.394531 396.078125 291.886719 L 407.183594 290.382812 L 418.261719 288.667969 C 425.640625 287.453125 432.992188 286.09375 440.3125 284.582031 C 454.957031 281.5625 469.476562 277.964844 483.828125 273.769531 C 487.402344 272.675781 491.003906 271.675781 494.550781 270.503906 C 498.105469 269.339844 501.683594 268.261719 505.207031 267.019531 C 508.730469 265.773438 512.28125 264.617188 515.78125 263.304688 C 519.277344 261.984375 522.804688 260.742188 526.273438 259.359375 C 529.738281 257.964844 533.234375 256.632812 536.675781 255.183594 L 546.976562 250.78125 L 549.722656 249.535156 C 548.695312 250.796875 547.671875 252.0625 546.5625 253.261719 L 542.550781 257.78125 C 541.191406 259.269531 539.75 260.6875 538.351562 262.144531 C 536.925781 263.570312 535.566406 265.070312 534.089844 266.449219 L 529.652344 270.585938 C 526.75 273.40625 523.625 275.988281 520.519531 278.59375 L 515.855469 282.496094 L 510.996094 286.164062 C 507.75 288.59375 504.582031 291.148438 501.160156 293.34375 C 497.789062 295.601562 494.449219 297.929688 491.039062 300.144531 L 480.558594 306.410156 C 477.113281 308.589844 473.441406 310.363281 469.839844 312.265625 C 466.207031 314.105469 462.667969 316.148438 458.945312 317.824219 L 447.78125 322.84375 C 445.910156 323.664062 444.070312 324.558594 442.179688 325.316406 L 436.449219 327.492188 L 424.988281 331.847656 C 421.167969 333.296875 417.207031 334.355469 413.316406 335.632812 L 401.605469 339.304688 L 401.421875 339.359375 C 400.261719 339.726562 399.5 340.878906 399.65625 342.117188 C 399.832031 343.515625 401.113281 344.503906 402.507812 344.324219 L 408.992188 343.492188 L 415.421875 342.488281 C 417.566406 342.15625 419.6875 341.75 421.820312 341.382812 C 423.953125 341.015625 426.074219 340.601562 428.199219 340.191406 C 436.6875 338.582031 445.121094 336.761719 453.535156 334.847656 C 469.3125 331.269531 485.003906 327.390625 500.648438 323.3125 C 494.429688 330.460938 487.601562 337.097656 480.273438 343.144531 C 472.109375 349.882812 463.347656 355.910156 454.171875 361.234375 C 463.511719 356.203125 472.488281 350.449219 480.902344 343.933594 C 489.320312 337.425781 497.175781 330.152344 504.28125 322.179688 C 504.488281 321.949219 504.585938 321.613281 504.511719 321.289062 C 504.386719 320.742188 503.84375 320.402344 503.304688 320.527344 L 503.265625 320.539062 C 486.5 324.378906 469.664062 327.984375 452.78125 331.25 C 446.742188 332.417969 440.703125 333.515625 434.65625 334.574219 L 438.59375 333.191406 L 444.480469 331.136719 C 446.429688 330.410156 448.324219 329.550781 450.25 328.765625 L 461.773438 323.949219 C 465.613281 322.339844 469.28125 320.355469 473.050781 318.570312 C 476.777344 316.722656 480.582031 315 484.167969 312.867188 L 495.082031 306.726562 C 498.644531 304.546875 502.136719 302.25 505.667969 300.011719 C 509.242188 297.84375 512.582031 295.316406 515.984375 292.882812 L 521.074219 289.203125 L 525.980469 285.28125 C 529.253906 282.660156 532.542969 280.058594 535.621094 277.199219 L 540.316406 273.003906 C 541.882812 271.609375 543.335938 270.082031 544.851562 268.621094 C 546.339844 267.136719 547.871094 265.695312 549.328125 264.171875 L 553.625 259.535156 C 555.085938 258.019531 556.445312 256.390625 557.8125 254.777344 C 559.171875 253.160156 560.570312 251.574219 561.851562 249.867188 C 563.152344 248.191406 564.488281 246.542969 565.714844 244.773438 C 567 243.011719 568.160156 241.332031 569.433594 239.277344 C 570.25 237.925781 570.433594 236.175781 569.730469 234.625 C 568.597656 232.140625 565.667969 231.042969 563.183594 232.175781 L 562.933594 232.285156 L 552.949219 236.832031 L 542.863281 241.148438 L 532.683594 245.238281 C 529.285156 246.578125 525.839844 247.8125 522.417969 249.101562 C 522.164062 249.199219 521.898438 249.285156 521.640625 249.382812 C 521.695312 249.347656 521.757812 249.320312 521.816406 249.289062 L 530.207031 244.765625 L 538.445312 239.953125 C 541.210938 238.382812 543.882812 236.65625 546.570312 234.9375 C 549.246094 233.21875 551.972656 231.570312 554.566406 229.71875 L 562.429688 224.273438 L 570.121094 218.5625 C 575.15625 214.636719 580.15625 210.652344 584.96875 206.425781 C 589.800781 202.234375 594.503906 197.878906 599.046875 193.347656 C 603.621094 188.847656 607.988281 184.132812 612.246094 179.308594 C 614.367188 176.890625 616.410156 174.398438 618.46875 171.914062 C 620.445312 169.367188 622.492188 166.875 624.378906 164.242188 C 628.253906 159.070312 631.875 153.691406 635.285156 148.121094 C 636.992188 145.34375 638.617188 142.492188 640.1875 139.582031 C 640.960938 138.109375 641.734375 136.652344 642.464844 135.125 L 643.5625 132.808594 C 643.9375 131.992188 644.246094 131.300781 644.6875 130.21875 C 645.769531 127.511719 645.574219 124.285156 643.855469 121.660156 C 641.054688 117.390625 635.320312 116.203125 631.050781 119.007812 L 630.757812 119.203125 L 619.269531 126.75 L 607.578125 133.964844 C 603.664062 136.339844 599.648438 138.550781 595.691406 140.855469 C 593.898438 141.886719 592.074219 142.878906 590.246094 143.855469 C 591.414062 142.945312 592.574219 142.011719 593.691406 141.039062 L 601.441406 134.492188 L 608.964844 127.667969 C 613.886719 123.007812 618.746094 118.277344 623.375 113.308594 C 625.757812 110.882812 627.984375 108.3125 630.242188 105.773438 C 632.535156 103.261719 634.691406 100.625 636.855469 97.996094 C 641.203125 92.757812 645.304688 87.300781 649.257812 81.726562 C 651.242188 78.949219 653.109375 76.074219 655.015625 73.234375 C 656.816406 70.3125 658.710938 67.464844 660.410156 64.46875 C 663.929688 58.574219 667.15625 52.46875 670.117188 46.183594 C 671.613281 43.042969 673 39.835938 674.328125 36.5625 C 674.976562 34.910156 675.625 33.269531 676.226562 31.554688 L 677.121094 28.945312 L 677.558594 27.578125 L 678.03125 25.976562 C 679.089844 22.28125 678.371094 18.078125 675.714844 14.921875 C 671.46875 9.886719 663.953125 9.257812 658.925781 13.503906 " fill-opacity="1" fill-rule="nonzero"/></g></g></g></svg>