<svg xmlns="http://www.w3.org/2000/svg" xmlns:xlink="http://www.w3.org/1999/xlink" width="1000" zoomAndPan="magnify" viewBox="0 0 750 299.999988" height="400" preserveAspectRatio="xMidYMid meet" version="1.0"><defs><g/><clipPath id="c9f7247045"><path d="M 9 8 L 238 8 L 238 281 L 9 281 Z M 9 8 " clip-rule="nonzero"/></clipPath><clipPath id="217a985446"><path d="M 0 275.363281 L 144.363281 -34.253906 L 246.394531 13.320312 L 102.03125 322.9375 Z M 0 275.363281 " clip-rule="nonzero"/></clipPath><clipPath id="eb8bd1b6af"><path d="M 0 275.363281 L 144.363281 -34.253906 L 246.394531 13.320312 L 102.03125 322.9375 Z M 0 275.363281 " clip-rule="nonzero"/></clipPath></defs><g clip-path="url(#c9f7247045)"><g clip-path="url(#217a985446)"><g clip-path="url(#eb8bd1b6af)"><path fill="#77bac9" d="M 230.019531 9.226562 L 229.878906 9.34375 C 222.679688 15.386719 214.859375 20.691406 206.585938 25.285156 C 204.492188 26.386719 202.4375 27.5625 200.304688 28.609375 L 193.871094 31.675781 L 187.296875 34.496094 C 186.210938 34.980469 185.09375 35.410156 183.972656 35.839844 L 180.625 37.136719 C 171.675781 40.570312 162.5 43.570312 153.230469 46.519531 C 143.953125 49.480469 134.597656 52.351562 125.234375 55.90625 L 119.914062 58.003906 C 119.320312 58.242188 118.792969 58.5 118.226562 58.742188 L 114.890625 60.230469 L 114.054688 60.601562 L 113.636719 60.789062 L 113.09375 61.042969 C 112.5 61.328125 111.90625 61.625 111.320312 61.933594 C 106.628906 64.414062 102.257812 67.460938 98.371094 71.261719 C 94.488281 75.054688 91.316406 79.664062 89.085938 84.65625 C 86.835938 89.65625 85.679688 95.101562 85.421875 100.546875 C 85.371094 101.226562 85.414062 101.90625 85.40625 102.589844 C 85.421875 103.273438 85.390625 103.953125 85.449219 104.632812 C 85.570312 105.992188 85.617188 107.355469 85.859375 108.695312 L 86.167969 110.714844 L 86.613281 112.707031 C 86.863281 114.011719 87.34375 115.414062 87.746094 116.773438 L 87.90625 117.28125 L 88.066406 117.707031 L 88.714844 119.417969 L 88.875 119.847656 L 88.953125 120.058594 C 88.953125 120.058594 89.105469 120.433594 89.066406 120.332031 L 89.117188 120.449219 C 89.667969 121.683594 90.214844 122.917969 90.863281 124.117188 C 92.136719 126.511719 93.574219 128.847656 95.261719 130.996094 C 96.933594 133.152344 98.789062 135.164062 100.78125 137.011719 C 102.773438 138.855469 104.921875 140.496094 107.136719 141.992188 C 108.242188 142.753906 109.386719 143.433594 110.523438 144.117188 C 111.683594 144.761719 112.820312 145.410156 114.058594 146.015625 C 115.363281 146.6875 116.246094 147.058594 117.558594 147.664062 L 120.984375 149.140625 C 125.511719 151.054688 129.847656 152.855469 133.675781 155.09375 C 134.628906 155.640625 135.585938 156.257812 136.382812 156.804688 C 136.574219 156.929688 136.832031 157.117188 137.078125 157.300781 L 137.816406 157.839844 L 138.96875 158.789062 C 140.566406 160.171875 142.085938 161.648438 143.375 163.332031 C 148.660156 169.957031 151.246094 178.753906 150.890625 187.410156 C 150.578125 196.070312 147.363281 204.640625 141.636719 210.898438 C 140.941406 211.703125 140.160156 212.414062 139.398438 213.144531 L 138.277344 214.097656 C 138.074219 214.261719 137.945312 214.402344 137.683594 214.585938 L 136.949219 215.121094 C 135.246094 216.414062 133.292969 217.574219 131.351562 218.613281 L 130.609375 218.996094 L 129.863281 219.367188 C 129.359375 219.613281 128.800781 219.851562 128.273438 220.089844 L 125.058594 221.53125 C 124 222.03125 122.898438 222.460938 121.792969 222.898438 L 118.484375 224.207031 C 109.589844 227.613281 100.328125 230.488281 91.035156 233.480469 C 81.738281 236.464844 72.375 239.535156 63.140625 243.125 L 59.683594 244.496094 C 58.53125 244.949219 57.378906 245.402344 56.246094 245.914062 L 49.414062 248.910156 L 42.683594 252.179688 C 40.453125 253.289062 38.28125 254.550781 36.082031 255.730469 C 32.875 257.542969 29.726562 259.464844 26.644531 261.492188 C 27.121094 260.761719 27.601562 260.03125 28.105469 259.316406 C 29.449219 257.398438 30.847656 255.511719 32.335938 253.695312 C 33.078125 252.785156 33.816406 251.871094 34.609375 250.996094 C 35.382812 250.113281 36.148438 249.21875 36.972656 248.371094 C 38.570312 246.636719 40.257812 244.980469 41.960938 243.347656 L 44.578125 240.949219 L 47.285156 238.640625 C 48.171875 237.855469 49.132812 237.15625 50.054688 236.414062 C 50.980469 235.671875 51.917969 234.941406 52.890625 234.253906 C 53.851562 233.558594 54.804688 232.84375 55.777344 232.160156 L 58.742188 230.167969 C 59.71875 229.488281 60.75 228.882812 61.757812 228.25 C 62.78125 227.632812 63.769531 226.96875 64.816406 226.390625 C 66.898438 225.21875 68.949219 223.996094 71.097656 222.925781 C 72.160156 222.378906 73.210938 221.8125 74.285156 221.277344 L 77.535156 219.738281 C 79.679688 218.671875 81.917969 217.78125 84.117188 216.8125 C 86.320312 215.859375 88.589844 215.042969 90.820312 214.152344 C 93.085938 213.320312 95.367188 212.554688 97.640625 211.75 L 104.558594 209.597656 L 104.730469 209.542969 C 106.679688 208.929688 107.867188 206.929688 107.421875 204.898438 C 106.949219 202.738281 104.8125 201.363281 102.644531 201.824219 L 97.394531 202.941406 C 95.65625 203.355469 93.90625 203.738281 92.171875 204.175781 C 90.4375 204.625 88.695312 205.039062 86.972656 205.523438 C 85.25 206.011719 83.515625 206.453125 81.808594 206.988281 C 80.097656 207.519531 78.371094 207.996094 76.675781 208.574219 C 74.976562 209.140625 73.265625 209.664062 71.585938 210.28125 C 69.898438 210.890625 68.199219 211.457031 66.535156 212.117188 C 64.867188 212.765625 63.183594 213.375 61.535156 214.078125 C 59.882812 214.769531 58.210938 215.417969 56.582031 216.164062 C 54.953125 216.898438 53.296875 217.585938 51.691406 218.378906 C 50.078125 219.164062 48.441406 219.886719 46.855469 220.722656 C 45.269531 221.550781 43.652344 222.324219 42.089844 223.199219 C 40.523438 224.070312 38.933594 224.890625 37.390625 225.800781 C 36.992188 226.039062 36.59375 226.269531 36.191406 226.503906 C 37.335938 224.949219 38.542969 223.433594 39.792969 221.953125 C 41.257812 220.238281 42.769531 218.558594 44.355469 216.949219 C 45.933594 215.328125 47.570312 213.765625 49.261719 212.253906 C 50.945312 210.734375 52.699219 209.292969 54.472656 207.871094 L 57.179688 205.796875 L 59.960938 203.8125 C 60.878906 203.136719 61.847656 202.535156 62.796875 201.902344 C 63.75 201.277344 64.699219 200.640625 65.683594 200.066406 L 68.617188 198.296875 L 71.617188 196.628906 C 72.605469 196.058594 73.632812 195.546875 74.652344 195.027344 C 75.679688 194.515625 76.6875 193.972656 77.726562 193.484375 C 79.8125 192.539062 81.867188 191.515625 84.003906 190.664062 L 87.179688 189.332031 L 90.40625 188.113281 C 92.546875 187.265625 94.75 186.582031 96.929688 185.835938 C 99.109375 185.089844 101.34375 184.496094 103.546875 183.816406 C 105.769531 183.199219 108.015625 182.648438 110.246094 182.054688 L 117.015625 180.539062 L 117.140625 180.515625 C 118.417969 180.222656 119.285156 179 119.105469 177.675781 C 118.910156 176.273438 117.609375 175.285156 116.203125 175.46875 L 112.007812 176.023438 L 107.824219 176.660156 C 105.039062 177.109375 102.265625 177.617188 99.503906 178.175781 C 93.976562 179.292969 88.496094 180.632812 83.082031 182.195312 C 81.734375 182.601562 80.375 182.972656 79.035156 183.414062 C 77.699219 183.847656 76.347656 184.25 75.015625 184.710938 C 73.6875 185.175781 72.347656 185.609375 71.027344 186.097656 C 69.707031 186.589844 68.378906 187.054688 67.070312 187.570312 C 65.761719 188.089844 64.441406 188.589844 63.144531 189.128906 L 59.257812 190.773438 L 58.1875 191.253906 C 58.582031 190.773438 58.976562 190.289062 59.402344 189.824219 L 60.914062 188.128906 C 61.425781 187.574219 61.96875 187.042969 62.496094 186.496094 C 63.03125 185.960938 63.542969 185.398438 64.101562 184.878906 L 65.773438 183.328125 C 66.867188 182.269531 68.042969 181.304688 69.214844 180.328125 L 70.972656 178.867188 L 72.800781 177.492188 C 74.023438 176.578125 75.21875 175.625 76.511719 174.800781 C 77.78125 173.953125 79.039062 173.082031 80.328125 172.253906 L 84.277344 169.910156 C 85.578125 169.09375 86.960938 168.429688 88.320312 167.714844 C 89.691406 167.027344 91.027344 166.265625 92.429688 165.636719 L 96.640625 163.761719 C 97.347656 163.457031 98.039062 163.121094 98.753906 162.839844 L 100.917969 162.027344 L 105.238281 160.398438 C 106.683594 159.859375 108.175781 159.464844 109.644531 158.988281 L 114.066406 157.621094 L 114.132812 157.601562 C 114.566406 157.464844 114.855469 157.035156 114.792969 156.570312 C 114.722656 156.046875 114.246094 155.679688 113.71875 155.742188 L 111.273438 156.050781 L 108.84375 156.417969 C 108.035156 156.542969 107.234375 156.695312 106.429688 156.832031 C 105.625 156.964844 104.824219 157.117188 104.023438 157.269531 C 100.820312 157.867188 97.632812 158.542969 94.460938 159.253906 C 88.503906 160.585938 82.578125 162.027344 76.675781 163.546875 C 79.015625 160.863281 81.589844 158.371094 84.351562 156.101562 C 87.425781 153.578125 90.730469 151.324219 94.191406 149.328125 C 90.667969 151.210938 87.285156 153.367188 84.117188 155.808594 C 80.945312 158.246094 77.984375 160.972656 75.308594 163.960938 C 75.234375 164.050781 75.195312 164.175781 75.222656 164.296875 C 75.273438 164.503906 75.472656 164.628906 75.679688 164.582031 L 75.691406 164.578125 C 82.019531 163.152344 88.375 161.808594 94.746094 160.597656 C 97.046875 160.160156 99.347656 159.75 101.652344 159.355469 L 100.105469 159.890625 L 97.882812 160.660156 C 97.148438 160.933594 96.433594 161.253906 95.707031 161.546875 L 91.363281 163.347656 C 89.914062 163.949219 88.53125 164.691406 87.109375 165.355469 C 85.703125 166.050781 84.265625 166.695312 82.914062 167.492188 L 78.800781 169.789062 C 77.457031 170.605469 76.140625 171.464844 74.8125 172.304688 C 73.464844 173.117188 72.207031 174.0625 70.921875 174.972656 L 69.003906 176.347656 L 67.152344 177.820312 C 65.921875 178.800781 64.683594 179.777344 63.523438 180.847656 L 61.753906 182.421875 C 61.164062 182.945312 60.617188 183.519531 60.046875 184.066406 C 59.484375 184.621094 58.910156 185.164062 58.359375 185.734375 L 56.742188 187.472656 C 56.191406 188.042969 55.683594 188.652344 55.167969 189.257812 C 54.652344 189.863281 54.128906 190.460938 53.644531 191.097656 C 53.15625 191.726562 52.65625 192.34375 52.191406 193.011719 C 51.710938 193.671875 51.273438 194.300781 50.792969 195.070312 C 50.488281 195.578125 50.421875 196.230469 50.6875 196.808594 C 51.117188 197.742188 52.21875 198.15625 53.152344 197.734375 L 53.242188 197.695312 L 57.011719 195.996094 L 60.816406 194.378906 L 64.652344 192.851562 C 65.9375 192.351562 67.234375 191.890625 68.527344 191.410156 C 68.679688 191.355469 68.828125 191.304688 68.980469 191.25 C 68.910156 191.289062 68.835938 191.324219 68.765625 191.363281 L 65.601562 193.054688 L 62.496094 194.855469 C 61.453125 195.441406 60.445312 196.089844 59.433594 196.730469 C 58.425781 197.378906 57.394531 197.996094 56.417969 198.6875 L 53.453125 200.730469 L 50.558594 202.867188 C 48.660156 204.335938 46.777344 205.832031 44.964844 207.414062 C 43.144531 208.988281 41.371094 210.617188 39.660156 212.320312 C 37.9375 214.003906 36.292969 215.773438 34.691406 217.582031 C 33.105469 219.40625 31.558594 221.273438 30.121094 223.230469 C 28.664062 225.171875 27.300781 227.191406 26.019531 229.28125 C 25.375 230.320312 24.769531 231.394531 24.179688 232.484375 C 23.886719 233.039062 23.597656 233.582031 23.320312 234.160156 L 22.910156 235.027344 C 22.769531 235.332031 22.652344 235.59375 22.488281 236 C 22.082031 237.015625 22.160156 238.222656 22.808594 239.207031 C 23.867188 240.8125 26.027344 241.261719 27.628906 240.214844 L 27.742188 240.140625 L 32.070312 237.316406 L 36.480469 234.613281 C 37.957031 233.722656 39.46875 232.894531 40.960938 232.035156 C 41.679688 231.621094 42.40625 231.230469 43.136719 230.847656 C 42.660156 231.214844 42.1875 231.589844 41.730469 231.988281 L 38.8125 234.441406 L 35.976562 237 C 34.125 238.746094 32.289062 240.515625 30.546875 242.382812 C 29.652344 243.292969 28.8125 244.253906 27.964844 245.207031 C 27.101562 246.152344 26.289062 247.140625 25.472656 248.125 C 23.839844 250.089844 22.296875 252.140625 20.808594 254.226562 C 20.058594 255.273438 19.359375 256.351562 18.640625 257.417969 C 17.964844 258.511719 17.253906 259.582031 16.613281 260.707031 C 15.289062 262.917969 14.082031 265.210938 12.964844 267.570312 C 12.40625 268.75 11.886719 269.957031 11.386719 271.183594 C 11.144531 271.804688 10.902344 272.417969 10.675781 273.0625 L 10.339844 274.042969 L 10.175781 274.554688 L 10 275.160156 C 9.605469 276.542969 9.878906 278.121094 10.882812 279.304688 C 12.488281 281.195312 15.316406 281.441406 17.207031 279.855469 L 17.347656 279.734375 C 24.546875 273.691406 32.367188 268.386719 40.640625 263.792969 C 42.734375 262.691406 44.789062 261.511719 46.921875 260.46875 L 53.355469 257.402344 L 59.929688 254.578125 C 61.019531 254.097656 62.136719 253.667969 63.253906 253.238281 L 66.605469 251.941406 C 75.558594 248.523438 84.730469 245.511719 94 242.566406 C 103.269531 239.605469 112.65625 236.726562 121.976562 233.1875 L 125.464844 231.8125 C 126.628906 231.359375 127.792969 230.902344 128.941406 230.367188 L 132.402344 228.828125 C 132.980469 228.5625 133.542969 228.324219 134.136719 228.042969 L 135.027344 227.605469 L 135.910156 227.148438 C 138.261719 225.898438 140.507812 224.570312 142.699219 222.9375 L 143.4375 222.402344 C 143.675781 222.234375 143.988281 221.960938 144.261719 221.742188 C 144.816406 221.28125 145.398438 220.8125 145.925781 220.34375 C 146.925781 219.402344 147.9375 218.464844 148.84375 217.4375 C 150.691406 215.414062 152.367188 213.230469 153.769531 210.894531 C 155.183594 208.570312 156.4375 206.144531 157.398438 203.613281 C 159.375 198.566406 160.449219 193.21875 160.679688 187.835938 C 160.773438 185.140625 160.667969 182.4375 160.347656 179.753906 C 159.992188 177.074219 159.429688 174.414062 158.65625 171.804688 C 157.863281 169.199219 156.820312 166.664062 155.582031 164.214844 C 154.339844 161.765625 152.808594 159.457031 151.117188 157.273438 C 149.429688 155.078125 147.445312 153.113281 145.351562 151.300781 L 143.667969 149.925781 L 142.933594 149.382812 C 142.6875 149.203125 142.453125 149.027344 142.136719 148.8125 C 140.921875 147.972656 139.824219 147.269531 138.660156 146.59375 C 134.039062 143.886719 129.308594 141.945312 124.847656 140.035156 L 121.539062 138.609375 C 120.632812 138.191406 119.265625 137.597656 118.40625 137.136719 C 117.441406 136.671875 116.457031 136.113281 115.476562 135.574219 C 114.519531 135 113.558594 134.4375 112.648438 133.808594 C 108.957031 131.363281 105.722656 128.417969 103.078125 125.019531 C 101.742188 123.332031 100.613281 121.492188 99.59375 119.589844 C 99.074219 118.644531 98.636719 117.652344 98.1875 116.660156 L 98.148438 116.566406 C 98.140625 116.550781 98.136719 116.542969 98.132812 116.535156 L 98.089844 116.417969 L 97.597656 115.136719 L 97.277344 114.28125 L 97.113281 113.855469 L 97.007812 113.492188 C 96.738281 112.507812 96.394531 111.609375 96.1875 110.519531 L 95.828125 108.949219 L 95.585938 107.355469 C 95.382812 106.300781 95.359375 105.230469 95.253906 104.164062 C 95.199219 103.628906 95.234375 103.09375 95.21875 102.5625 C 95.222656 102.027344 95.179688 101.492188 95.222656 100.960938 C 95.421875 96.707031 96.300781 92.472656 98.035156 88.601562 C 99.769531 84.730469 102.171875 81.183594 105.238281 78.164062 C 108.296875 75.152344 111.972656 72.550781 115.886719 70.480469 C 116.375 70.21875 116.871094 69.96875 117.371094 69.722656 L 117.53125 69.648438 C 117.542969 69.640625 117.554688 69.636719 117.550781 69.640625 L 117.65625 69.59375 L 118.90625 69.03125 L 122.238281 67.535156 C 122.789062 67.296875 123.355469 67.019531 123.898438 66.804688 L 125.523438 66.164062 L 128.769531 64.878906 C 137.625 61.488281 146.914062 58.601562 156.199219 55.613281 C 165.496094 52.632812 174.859375 49.550781 184.097656 45.976562 L 187.554688 44.605469 C 188.707031 44.152344 189.859375 43.699219 190.992188 43.1875 L 197.824219 40.191406 L 204.554688 36.921875 C 206.789062 35.808594 208.957031 34.550781 211.15625 33.367188 C 214.347656 31.566406 217.480469 29.65625 220.546875 27.640625 C 220.078125 28.355469 219.613281 29.066406 219.117188 29.765625 C 217.773438 31.683594 216.378906 33.566406 214.886719 35.386719 C 214.144531 36.296875 213.40625 37.210938 212.617188 38.085938 C 211.839844 38.96875 211.074219 39.867188 210.253906 40.710938 C 208.65625 42.445312 206.96875 44.101562 205.261719 45.734375 L 202.644531 48.132812 L 199.941406 50.4375 C 199.054688 51.222656 198.09375 51.921875 197.171875 52.667969 C 196.242188 53.410156 195.308594 54.140625 194.335938 54.828125 C 193.375 55.523438 192.425781 56.238281 191.449219 56.917969 L 188.488281 58.910156 C 187.511719 59.59375 186.480469 60.195312 185.46875 60.832031 C 184.449219 61.449219 183.457031 62.109375 182.410156 62.691406 C 180.328125 63.863281 178.277344 65.085938 176.132812 66.15625 C 175.070312 66.703125 174.015625 67.269531 172.941406 67.800781 L 169.695312 69.339844 C 167.546875 70.402344 165.308594 71.289062 163.109375 72.261719 C 160.90625 73.214844 158.640625 74.03125 156.40625 74.925781 C 154.144531 75.75 151.859375 76.519531 149.585938 77.324219 L 142.671875 79.476562 L 142.496094 79.53125 C 140.539062 80.144531 139.347656 82.152344 139.792969 84.195312 C 140.269531 86.359375 142.417969 87.742188 144.589844 87.28125 L 149.839844 86.160156 C 151.582031 85.75 153.332031 85.363281 155.066406 84.929688 C 156.796875 84.480469 158.542969 84.066406 160.265625 83.582031 C 161.988281 83.089844 163.71875 82.648438 165.429688 82.117188 C 167.140625 81.585938 168.867188 81.109375 170.5625 80.53125 C 172.261719 79.960938 173.972656 79.4375 175.65625 78.820312 C 177.339844 78.210938 179.035156 77.644531 180.703125 76.984375 C 182.371094 76.339844 184.058594 75.730469 185.707031 75.027344 C 187.355469 74.335938 189.027344 73.683594 190.65625 72.9375 C 192.285156 72.203125 193.941406 71.515625 195.550781 70.722656 C 197.160156 69.941406 198.796875 69.214844 200.382812 68.378906 C 201.972656 67.550781 203.585938 66.777344 205.152344 65.90625 C 206.71875 65.03125 208.308594 64.207031 209.851562 63.296875 C 210.230469 63.070312 210.613281 62.851562 210.996094 62.628906 C 209.859375 64.160156 208.660156 65.660156 207.429688 67.128906 C 205.964844 68.839844 204.453125 70.519531 202.867188 72.128906 C 201.289062 73.75 199.648438 75.3125 197.960938 76.824219 C 196.28125 78.34375 194.523438 79.785156 192.75 81.207031 L 190.042969 83.28125 L 187.265625 85.265625 C 186.347656 85.941406 185.378906 86.542969 184.425781 87.175781 C 183.476562 87.800781 182.527344 88.433594 181.539062 89.011719 L 178.609375 90.78125 L 175.609375 92.449219 C 174.621094 93.019531 173.59375 93.53125 172.574219 94.046875 C 171.546875 94.558594 170.539062 95.105469 169.5 95.589844 C 167.414062 96.539062 165.359375 97.558594 163.226562 98.414062 L 160.046875 99.742188 L 156.820312 100.964844 C 154.683594 101.8125 152.476562 102.496094 150.300781 103.242188 C 148.121094 103.984375 145.890625 104.582031 143.683594 105.257812 C 141.460938 105.878906 139.21875 106.429688 136.984375 107.023438 L 130.214844 108.539062 L 130.089844 108.566406 C 128.804688 108.859375 127.933594 110.085938 128.117188 111.414062 C 128.3125 112.828125 129.617188 113.816406 131.035156 113.628906 L 135.226562 113.074219 L 139.410156 112.441406 C 142.195312 111.992188 144.96875 111.488281 147.730469 110.925781 C 153.257812 109.804688 158.738281 108.46875 164.152344 106.90625 C 165.503906 106.496094 166.859375 106.125 168.199219 105.6875 C 169.539062 105.253906 170.890625 104.851562 172.21875 104.386719 C 173.550781 103.921875 174.890625 103.492188 176.210938 103.003906 C 177.527344 102.507812 178.859375 102.046875 180.167969 101.527344 C 181.476562 101.007812 182.792969 100.511719 184.09375 99.96875 L 187.976562 98.324219 L 189.015625 97.859375 C 188.628906 98.332031 188.242188 98.804688 187.824219 99.257812 L 186.3125 100.953125 C 185.800781 101.511719 185.257812 102.042969 184.730469 102.589844 C 184.195312 103.125 183.683594 103.6875 183.128906 104.203125 L 181.457031 105.753906 C 180.359375 106.8125 179.183594 107.777344 178.015625 108.753906 L 176.257812 110.21875 L 174.425781 111.59375 C 173.203125 112.503906 172.007812 113.460938 170.71875 114.28125 C 169.445312 115.128906 168.1875 116 166.902344 116.828125 L 162.953125 119.171875 C 161.652344 119.988281 160.269531 120.652344 158.910156 121.363281 C 157.539062 122.050781 156.203125 122.816406 154.800781 123.441406 L 150.589844 125.320312 C 149.882812 125.625 149.191406 125.960938 148.476562 126.246094 L 146.3125 127.058594 L 141.992188 128.683594 C 140.550781 129.222656 139.054688 129.617188 137.585938 130.09375 L 133.167969 131.464844 L 133.097656 131.484375 C 132.660156 131.621094 132.375 132.050781 132.433594 132.519531 C 132.503906 133.042969 132.988281 133.417969 133.515625 133.351562 L 135.960938 133.042969 L 138.390625 132.671875 C 139.199219 132.550781 140 132.398438 140.804688 132.265625 C 141.609375 132.128906 142.410156 131.976562 143.210938 131.824219 C 146.417969 131.226562 149.597656 130.550781 152.773438 129.839844 C 158.730469 128.507812 164.648438 127.066406 170.554688 125.546875 C 168.214844 128.230469 165.640625 130.71875 162.878906 132.984375 C 159.804688 135.511719 156.5 137.765625 153.042969 139.761719 C 156.5625 137.878906 159.949219 135.722656 163.117188 133.28125 C 166.289062 130.84375 169.25 128.117188 171.925781 125.125 C 172.003906 125.039062 172.039062 124.914062 172.011719 124.789062 C 171.964844 124.585938 171.757812 124.457031 171.554688 124.503906 L 171.539062 124.507812 C 165.210938 125.9375 158.859375 127.273438 152.488281 128.484375 C 150.207031 128.917969 147.925781 129.324219 145.644531 129.71875 L 147.132812 129.203125 L 149.351562 128.433594 C 150.085938 128.164062 150.800781 127.84375 151.527344 127.546875 L 155.875 125.75 C 157.324219 125.148438 158.707031 124.40625 160.128906 123.738281 C 161.535156 123.046875 162.96875 122.402344 164.320312 121.605469 L 168.4375 119.308594 C 169.777344 118.492188 171.097656 117.632812 172.425781 116.792969 C 173.773438 115.980469 175.03125 115.035156 176.316406 114.125 L 178.234375 112.746094 L 180.082031 111.273438 C 181.316406 110.292969 182.554688 109.316406 183.714844 108.246094 L 185.484375 106.671875 C 186.074219 106.148438 186.621094 105.578125 187.195312 105.03125 C 187.753906 104.472656 188.328125 103.933594 188.878906 103.363281 L 190.496094 101.621094 C 191.046875 101.054688 191.558594 100.441406 192.074219 99.839844 C 192.585938 99.230469 193.113281 98.636719 193.59375 97.996094 C 194.085938 97.367188 194.585938 96.75 195.046875 96.082031 C 195.53125 95.421875 195.96875 94.792969 196.445312 94.023438 C 196.753906 93.515625 196.820312 92.855469 196.554688 92.273438 C 196.125 91.339844 195.015625 90.921875 194.078125 91.34375 L 193.984375 91.386719 L 190.21875 93.085938 L 186.414062 94.699219 L 182.574219 96.226562 C 181.292969 96.726562 179.992188 97.1875 178.703125 97.667969 C 178.605469 97.703125 178.507812 97.738281 178.410156 97.773438 C 178.429688 97.761719 178.453125 97.75 178.476562 97.738281 L 181.640625 96.046875 L 184.746094 94.246094 C 185.789062 93.65625 186.796875 93.011719 187.808594 92.367188 C 188.816406 91.722656 189.84375 91.105469 190.824219 90.414062 L 193.789062 88.375 L 196.6875 86.234375 C 198.582031 84.761719 200.46875 83.269531 202.28125 81.683594 C 204.101562 80.113281 205.875 78.480469 207.585938 76.78125 C 209.308594 75.097656 210.953125 73.328125 212.554688 71.515625 C 213.355469 70.609375 214.125 69.675781 214.898438 68.742188 C 215.640625 67.789062 216.414062 66.851562 217.121094 65.867188 C 218.578125 63.925781 219.941406 61.90625 221.222656 59.816406 C 221.867188 58.773438 222.476562 57.699219 223.066406 56.609375 C 223.359375 56.058594 223.648438 55.511719 223.921875 54.9375 L 224.335938 54.066406 C 224.476562 53.757812 224.59375 53.5 224.757812 53.09375 C 225.164062 52.078125 225.085938 50.863281 224.433594 49.875 C 223.371094 48.265625 221.207031 47.8125 219.597656 48.863281 L 219.484375 48.9375 L 215.15625 51.765625 L 210.746094 54.464844 C 209.273438 55.355469 207.757812 56.183594 206.265625 57.042969 C 205.589844 57.429688 204.902344 57.800781 204.210938 58.167969 C 204.652344 57.824219 205.089844 57.476562 205.511719 57.109375 L 208.429688 54.65625 L 211.265625 52.097656 C 213.117188 50.351562 214.949219 48.578125 216.691406 46.714844 C 217.589844 45.804688 218.425781 44.839844 219.277344 43.886719 C 220.140625 42.945312 220.953125 41.957031 221.769531 40.972656 C 223.402344 39.003906 224.949219 36.957031 226.433594 34.867188 C 227.183594 33.824219 227.882812 32.746094 228.601562 31.679688 C 229.277344 30.582031 229.992188 29.511719 230.628906 28.390625 C 231.953125 26.175781 233.164062 23.882812 234.277344 21.523438 C 234.839844 20.34375 235.359375 19.140625 235.859375 17.910156 C 236.101562 17.289062 236.34375 16.675781 236.570312 16.027344 L 236.90625 15.050781 L 237.070312 14.535156 L 237.246094 13.933594 C 237.640625 12.546875 237.367188 10.964844 236.359375 9.777344 C 234.75 7.878906 231.914062 7.632812 230.019531 9.226562 " fill-opacity="1" fill-rule="nonzero"/></g></g></g><g fill="#78bbcb" fill-opacity="0.4"><g transform="translate(180.706625, 236.534002)"><g><path d="M 32.828125 -66.109375 C 36.09375 -66.109375 38.828125 -67.78125 38.828125 -71.429688 C 38.828125 -74.695312 36.324219 -76.671875 32.828125 -76.671875 C 29.253906 -76.671875 26.824219 -74.695312 26.824219 -71.429688 C 26.824219 -67.78125 29.484375 -66.109375 32.828125 -66.109375 Z M 48.40625 -66.109375 C 51.746094 -66.109375 54.40625 -67.78125 54.40625 -71.429688 C 54.40625 -74.695312 51.898438 -76.671875 48.40625 -76.671875 C 44.910156 -76.671875 42.402344 -74.695312 42.402344 -71.429688 C 42.402344 -67.78125 45.0625 -66.109375 48.40625 -66.109375 Z M 40.882812 0.988281 C 64.285156 0.988281 78.722656 -11.777344 78.722656 -30.851562 L 78.722656 -30.925781 C 78.722656 -50 64.285156 -62.691406 40.882812 -62.691406 C 17.554688 -62.691406 3.117188 -50 3.117188 -30.925781 L 3.117188 -30.851562 C 3.117188 -11.777344 17.554688 0.988281 40.882812 0.988281 Z M 40.882812 -10.183594 C 25.304688 -10.183594 15.273438 -18.238281 15.273438 -30.773438 L 15.273438 -30.851562 C 15.273438 -43.617188 24.847656 -51.519531 40.882812 -51.519531 C 56.460938 -51.519531 66.488281 -43.390625 66.488281 -30.851562 L 66.488281 -30.773438 C 66.488281 -18.238281 56.535156 -10.183594 40.882812 -10.183594 Z M 40.882812 -10.183594 "/></g></g></g><g fill="#78bbcb" fill-opacity="0.4"><g transform="translate(280.081353, 236.534002)"><g><path d="M 60.335938 -50.457031 L 60.335938 -61.625 L 2.507812 -61.625 L 2.507812 -50.457031 L 43.769531 -50.457031 L 2.507812 -11.171875 L 2.507812 0 L 60.5625 0 L 60.5625 -11.171875 L 18.921875 -11.171875 Z M 60.335938 -50.457031 "/></g></g></g><g fill="#78bbcb" fill-opacity="0.4"><g transform="translate(360.844229, 236.534002)"><g/></g></g><g fill="#78bbcb" fill-opacity="0.4"><g transform="translate(395.039434, 236.534002)"><g><path d="M 35.636719 0.988281 C 54.636719 0.988281 67.171875 -7.144531 67.171875 -25.378906 L 67.171875 -61.625 L 55.242188 -61.625 L 55.242188 -28.117188 C 55.242188 -15.199219 47.871094 -10.183594 35.636719 -10.183594 C 23.480469 -10.183594 16.109375 -15.199219 16.109375 -28.117188 L 16.109375 -61.625 L 4.101562 -61.625 L 4.101562 -25.378906 C 4.101562 -7.144531 16.71875 0.988281 35.636719 0.988281 Z M 35.636719 0.988281 "/></g></g></g><g fill="#78bbcb" fill-opacity="0.4"><g transform="translate(483.930763, 236.534002)"><g><path d="M 61.246094 -15.046875 C 54.710938 -11.777344 46.882812 -10.183594 39.894531 -10.183594 C 25.074219 -10.183594 15.273438 -18.085938 15.273438 -30.546875 L 15.273438 -30.699219 C 15.273438 -43.617188 24.621094 -51.519531 39.96875 -51.519531 C 47.71875 -51.519531 55.320312 -49.542969 61.246094 -46.582031 L 66.335938 -56.839844 C 58.738281 -60.5625 48.554688 -62.691406 39.96875 -62.691406 C 17.25 -62.691406 3.117188 -49.925781 3.117188 -30.699219 L 3.117188 -30.546875 C 3.117188 -12.691406 15.804688 -0.53125 36.019531 0.835938 L 31.003906 5.699219 L 34.5 8.585938 C 36.777344 8.207031 39.363281 8.128906 40.425781 8.128906 C 43.464844 8.128906 44.300781 8.964844 44.300781 9.726562 L 44.300781 9.800781 C 44.300781 10.636719 43.464844 11.472656 40.5 11.472656 C 38.144531 11.472656 32.523438 10.867188 29.710938 10.105469 L 32.675781 15.804688 C 33.816406 16.183594 36.550781 16.71875 40.5 16.71875 C 47.644531 16.71875 52.355469 14.210938 52.355469 10.257812 L 52.355469 10.105469 C 52.355469 6.308594 48.554688 3.496094 41.335938 3.496094 C 40.804688 3.496094 40.046875 3.496094 39.210938 3.570312 L 41.640625 0.988281 C 50.226562 0.683594 59.5 -1.519531 66.335938 -4.789062 Z M 61.246094 -15.046875 "/></g></g></g><g fill="#78bbcb" fill-opacity="0.4"><g transform="translate(570.087274, 236.534002)"><g><path d="M 77.433594 0 L 46.125 -61.625 L 32.21875 -61.625 L 1.0625 0 L 13.828125 0 L 21.582031 -15.652344 L 56.839844 -15.652344 L 64.664062 0 Z M 51.824219 -25.910156 L 26.671875 -25.910156 L 39.132812 -51.292969 Z M 51.824219 -25.910156 "/></g></g></g><g fill="#78bbcb" fill-opacity="0.4"><g transform="translate(666.043485, 236.534002)"><g><path d="M 52.203125 -24.164062 C 59.652344 -27.203125 64.132812 -33.664062 64.132812 -42.324219 L 64.132812 -42.402344 C 64.132812 -54.253906 55.167969 -61.625 41.640625 -61.625 L 4.179688 -61.625 L 4.179688 0 L 16.035156 0 L 16.035156 -22.1875 L 40.351562 -22.1875 L 54.558594 0 L 68.007812 0 Z M 40.199219 -50.53125 C 47.265625 -50.53125 51.824219 -47.871094 51.824219 -41.640625 L 51.824219 -41.566406 C 51.824219 -35.410156 47.1875 -32.445312 40.199219 -32.445312 L 16.035156 -32.445312 L 16.035156 -50.53125 Z M 40.199219 -50.53125 "/></g></g></g><g fill="#78bbcb" fill-opacity="1"><g transform="translate(177.347389, 233.174765)"><g><path d="M 32.828125 -66.109375 C 36.09375 -66.109375 38.828125 -67.78125 38.828125 -71.429688 C 38.828125 -74.695312 36.324219 -76.671875 32.828125 -76.671875 C 29.253906 -76.671875 26.824219 -74.695312 26.824219 -71.429688 C 26.824219 -67.78125 29.484375 -66.109375 32.828125 -66.109375 Z M 48.40625 -66.109375 C 51.746094 -66.109375 54.40625 -67.78125 54.40625 -71.429688 C 54.40625 -74.695312 51.898438 -76.671875 48.40625 -76.671875 C 44.910156 -76.671875 42.402344 -74.695312 42.402344 -71.429688 C 42.402344 -67.78125 45.0625 -66.109375 48.40625 -66.109375 Z M 40.882812 0.988281 C 64.285156 0.988281 78.722656 -11.777344 78.722656 -30.851562 L 78.722656 -30.925781 C 78.722656 -50 64.285156 -62.691406 40.882812 -62.691406 C 17.554688 -62.691406 3.117188 -50 3.117188 -30.925781 L 3.117188 -30.851562 C 3.117188 -11.777344 17.554688 0.988281 40.882812 0.988281 Z M 40.882812 -10.183594 C 25.304688 -10.183594 15.273438 -18.238281 15.273438 -30.773438 L 15.273438 -30.851562 C 15.273438 -43.617188 24.847656 -51.519531 40.882812 -51.519531 C 56.460938 -51.519531 66.488281 -43.390625 66.488281 -30.851562 L 66.488281 -30.773438 C 66.488281 -18.238281 56.535156 -10.183594 40.882812 -10.183594 Z M 40.882812 -10.183594 "/></g></g></g><g fill="#78bbcb" fill-opacity="1"><g transform="translate(276.722116, 233.174765)"><g><path d="M 60.335938 -50.457031 L 60.335938 -61.625 L 2.507812 -61.625 L 2.507812 -50.457031 L 43.769531 -50.457031 L 2.507812 -11.171875 L 2.507812 0 L 60.5625 0 L 60.5625 -11.171875 L 18.921875 -11.171875 Z M 60.335938 -50.457031 "/></g></g></g><g fill="#78bbcb" fill-opacity="1"><g transform="translate(357.484993, 233.174765)"><g/></g></g><g fill="#78bbcb" fill-opacity="1"><g transform="translate(391.680197, 233.174765)"><g><path d="M 35.636719 0.988281 C 54.636719 0.988281 67.171875 -7.144531 67.171875 -25.378906 L 67.171875 -61.625 L 55.242188 -61.625 L 55.242188 -28.117188 C 55.242188 -15.199219 47.871094 -10.183594 35.636719 -10.183594 C 23.480469 -10.183594 16.109375 -15.199219 16.109375 -28.117188 L 16.109375 -61.625 L 4.101562 -61.625 L 4.101562 -25.378906 C 4.101562 -7.144531 16.71875 0.988281 35.636719 0.988281 Z M 35.636719 0.988281 "/></g></g></g><g fill="#78bbcb" fill-opacity="1"><g transform="translate(480.571526, 233.174765)"><g><path d="M 61.246094 -15.046875 C 54.710938 -11.777344 46.882812 -10.183594 39.894531 -10.183594 C 25.074219 -10.183594 15.273438 -18.085938 15.273438 -30.546875 L 15.273438 -30.699219 C 15.273438 -43.617188 24.621094 -51.519531 39.96875 -51.519531 C 47.71875 -51.519531 55.320312 -49.542969 61.246094 -46.582031 L 66.335938 -56.839844 C 58.738281 -60.5625 48.554688 -62.691406 39.96875 -62.691406 C 17.25 -62.691406 3.117188 -49.925781 3.117188 -30.699219 L 3.117188 -30.546875 C 3.117188 -12.691406 15.804688 -0.53125 36.019531 0.835938 L 31.003906 5.699219 L 34.5 8.585938 C 36.777344 8.207031 39.363281 8.128906 40.425781 8.128906 C 43.464844 8.128906 44.300781 8.964844 44.300781 9.726562 L 44.300781 9.800781 C 44.300781 10.636719 43.464844 11.472656 40.5 11.472656 C 38.144531 11.472656 32.523438 10.867188 29.710938 10.105469 L 32.675781 15.804688 C 33.816406 16.183594 36.550781 16.71875 40.5 16.71875 C 47.644531 16.71875 52.355469 14.210938 52.355469 10.257812 L 52.355469 10.105469 C 52.355469 6.308594 48.554688 3.496094 41.335938 3.496094 C 40.804688 3.496094 40.046875 3.496094 39.210938 3.570312 L 41.640625 0.988281 C 50.226562 0.683594 59.5 -1.519531 66.335938 -4.789062 Z M 61.246094 -15.046875 "/></g></g></g><g fill="#78bbcb" fill-opacity="1"><g transform="translate(566.728038, 233.174765)"><g><path d="M 77.433594 0 L 46.125 -61.625 L 32.21875 -61.625 L 1.0625 0 L 13.828125 0 L 21.582031 -15.652344 L 56.839844 -15.652344 L 64.664062 0 Z M 51.824219 -25.910156 L 26.671875 -25.910156 L 39.132812 -51.292969 Z M 51.824219 -25.910156 "/></g></g></g><g fill="#78bbcb" fill-opacity="1"><g transform="translate(662.684249, 233.174765)"><g><path d="M 52.203125 -24.164062 C 59.652344 -27.203125 64.132812 -33.664062 64.132812 -42.324219 L 64.132812 -42.402344 C 64.132812 -54.253906 55.167969 -61.625 41.640625 -61.625 L 4.179688 -61.625 L 4.179688 0 L 16.035156 0 L 16.035156 -22.1875 L 40.351562 -22.1875 L 54.558594 0 L 68.007812 0 Z M 40.199219 -50.53125 C 47.265625 -50.53125 51.824219 -47.871094 51.824219 -41.640625 L 51.824219 -41.566406 C 51.824219 -35.410156 47.1875 -32.445312 40.199219 -32.445312 L 16.035156 -32.445312 L 16.035156 -50.53125 Z M 40.199219 -50.53125 "/></g></g></g></svg>